<svg width="15" height="19" viewBox="0 0 15 19" fill="none" xmlns="http://www.w3.org/2000/svg">
<path d="M12.4492 9.7084C12.4414 8.20313 13.0898 7.06699 14.4023 6.23027C13.668 5.12695 12.5586 4.51992 11.0938 4.40098C9.70703 4.28613 8.19141 5.25 7.63672 5.25C7.05078 5.25 5.70703 4.44199 4.65234 4.44199C2.47266 4.47891 0.15625 6.26719 0.15625 9.90527C0.15625 10.9799 0.34375 12.09 0.71875 13.2357C1.21875 14.741 3.02344 18.4324 4.90625 18.3709C5.89062 18.3463 6.58594 17.6367 7.86719 17.6367C9.10937 17.6367 9.75391 18.3709 10.8516 18.3709C12.75 18.3422 14.3828 14.9871 14.8594 13.4777C12.3125 12.2186 12.4492 9.78633 12.4492 9.7084V9.7084ZM10.2383 2.97363C11.3047 1.64473 11.207 0.434766 11.1758 0C10.2344 0.0574219 9.14453 0.672656 8.52344 1.43145C7.83984 2.24355 7.4375 3.24844 7.52344 4.38047C8.54297 4.4625 9.47266 3.91289 10.2383 2.97363V2.97363Z" fill="#C3C5C9"/>
</svg>
